<?xml version="1.0" encoding="utf-8"?>
<!-- Generator: Adobe Illustrator 16.0.0, SVG Export Plug-In . SVG Version: 6.00 Build 0)  -->
<!DOCTYPE svg PUBLIC "-//W3C//DTD SVG 1.1//EN" "http://www.w3.org/Graphics/SVG/1.1/DTD/svg11.dtd">
<svg version="1.1" xmlns="http://www.w3.org/2000/svg" xmlns:xlink="http://www.w3.org/1999/xlink" x="0px" y="0px" width="2000px"
	 height="1400px" viewBox="0 0 2000 1400" enable-background="new 0 0 2000 1400" xml:space="preserve">
<g id="BACKGROUND">
	<rect x="-1" y="1" fill="transparent" width="2000" height="1400"/>
</g>
<g id="OBJECT">
	<g>
		<polygon fill="#CCCCCC" points="85,461 85,1097 146.879,1100.248 		"/>
		<rect x="550" y="1098" fill="none" stroke="#263650" stroke-width="2" stroke-miterlimit="10" width="11" height="224"/>
		<path fill="#263650" d="M555,1366c28,0,27.514-53,0-53C537,1313,555,1366,555,1366z"/>
		<polygon fill="#F5EDEB" points="76,292.079 120,1106.786 988,1097.562 988,292 		"/>
		<polygon fill="#2878E7" points="830,1075.27 840.92,1112.85 54,1126 54,1088 788.62,1075.85 788.63,1075.891 		"/>
		<polygon fill="#2878E7" points="1029,1072 1029,1109.79 942.5,1111.2 932.11,1073.55 		"/>
		<polygon fill="#206AC4" points="942.5,1111.2 840.92,1112.85 830,1075.27 788.63,1075.891 788.62,1075.85 932.11,1073.55 		"/>
		<polygon fill="#CCCCCC" points="932.11,1073.55 788.62,1075.85 745,949.21 759.5,935.33 736,885.88 703,821.26 710,766.609 
			851.8,927.02 919,1026.08 		"/>
		<circle fill="#F80F30" cx="428.277" cy="782.404" r="48.277"/>
		<polygon fill="#263650" points="54,246 54,330 1029,313 1029,209 		"/>
		<path fill="#0071BC" d="M428,782v-47.865c-26.534,0.149-48,21.7-48,48.27c0,26.662,21.614,48.276,48.276,48.276
			c26.663,0,48.277-21.614,48.277-48.276c0-11.419-3.974-21.904-10.602-30.171L428,782z"/>
		<polygon fill="#98B1D7" points="442,374 442,687 874,683.784 874,368 		"/>
		<circle fill="#F80F30" cx="256.6" cy="837.205" r="86.6"/>
		<circle fill="none" stroke="#263650" stroke-width="2" stroke-miterlimit="10" cx="371" cy="873.121" r="85"/>
		<polygon fill="none" stroke="#263650" stroke-width="2" stroke-miterlimit="10" points="192,1004 192,1051 477,1043 477,1004 		
			"/>
		<line fill="none" stroke="#FFFFFF" stroke-width="2" stroke-miterlimit="10" x1="54" y1="265" x2="1029" y2="241.834"/>
		<g>
			<circle fill="#F80F30" cx="279" cy="508.23" r="109"/>
			<circle fill="#FFFFFF" cx="279" cy="508.23" r="87.124"/>
			<circle fill="#F80F30" cx="279" cy="508.23" r="63.061"/>
			<circle fill="#FFFFFF" cx="279" cy="508.23" r="36.928"/>
			<circle fill="#F80F30" cx="279" cy="508.23" r="17.664"/>
			<line fill="none" stroke="#263650" stroke-width="2" stroke-miterlimit="10" x1="279" y1="508.23" x2="397" y2="399.23"/>
			<path fill="none" stroke="#263650" stroke-width="2" stroke-miterlimit="10" d="M370.598,423.619c0,0,4.401-34.285,26.402-52.285
				c0,0,5.762,22.574-4.896,32.418"/>
			<path fill="none" stroke="#263650" stroke-width="2" stroke-miterlimit="10" d="M371.121,422.29c0,0,34.566-0.24,55.085-19.913
				c0,0-21.715-8.438-32.772,0.956"/>
			<g>
				<line fill="none" stroke="#FFFFFF" stroke-width="2" stroke-miterlimit="10" x1="279" y1="516" x2="279" y2="524"/>
				<line fill="none" stroke="#FFFFFF" stroke-width="2" stroke-miterlimit="10" x1="279" y1="561" x2="279" y2="569"/>
				<line fill="none" stroke="#FFFFFF" stroke-width="2" stroke-miterlimit="10" x1="279" y1="608" x2="279" y2="616"/>
			</g>
			<g>
				<line fill="none" stroke="#FFFFFF" stroke-width="2" stroke-miterlimit="10" x1="286" y1="506" x2="294" y2="506"/>
				<line fill="none" stroke="#FFFFFF" stroke-width="2" stroke-miterlimit="10" x1="331" y1="506" x2="339" y2="506"/>
				<line fill="none" stroke="#FFFFFF" stroke-width="2" stroke-miterlimit="10" x1="378" y1="506" x2="386" y2="506"/>
			</g>
		</g>
		<polyline fill="none" stroke="#263650" stroke-width="2" stroke-miterlimit="10" points="1029,209 1049,223 1049,292 1021,304 		
			"/>
		<line fill="none" stroke="#FFFFFF" stroke-width="2" stroke-miterlimit="10" x1="463.546" y1="421" x2="851.799" y2="426"/>
		<line fill="none" stroke="#FFFFFF" stroke-width="2" stroke-miterlimit="10" x1="463.546" y1="451" x2="851.799" y2="456"/>
		<line fill="none" stroke="#FFFFFF" stroke-width="2" stroke-miterlimit="10" x1="463.546" y1="479" x2="851.799" y2="484"/>
		<line fill="none" stroke="#FFFFFF" stroke-width="2" stroke-miterlimit="10" x1="463.546" y1="513" x2="851.799" y2="518"/>
		<line fill="none" stroke="#FFFFFF" stroke-width="2" stroke-miterlimit="10" x1="463.546" y1="543" x2="851.799" y2="548"/>
		<line fill="none" stroke="#FFFFFF" stroke-width="2" stroke-miterlimit="10" x1="463.546" y1="575" x2="851.799" y2="580"/>
		<line fill="none" stroke="#FFFFFF" stroke-width="2" stroke-miterlimit="10" x1="463.546" y1="605" x2="851.799" y2="610"/>
		<line fill="none" stroke="#263650" stroke-width="2" stroke-miterlimit="10" x1="463.546" y1="642" x2="851.799" y2="647"/>
		<line fill="none" stroke="#263650" stroke-width="2" stroke-miterlimit="10" x1="479" y1="391" x2="479" y2="662"/>
		<circle fill="#F80F30" cx="523" cy="479" r="9"/>
		<circle fill="#F80F30" cx="712" cy="578" r="9"/>
		<circle fill="#F80F30" cx="803" cy="595" r="9"/>
		<circle fill="#0071BC" cx="523" cy="575" r="9"/>
		<circle fill="#0071BC" cx="617" cy="548" r="9"/>
		<circle fill="#0071BC" cx="667" cy="456" r="9"/>
		<circle fill="#0071BC" cx="736" cy="424" r="9"/>
		<circle fill="#0071BC" cx="821" cy="411" r="9"/>
		<circle fill="#F80F30" cx="586" cy="513" r="9"/>
		<polyline fill="none" stroke="#0071BC" stroke-width="2" stroke-miterlimit="10" points="523,575 617,548 667,456 736,424 
			821,411 		"/>
		<polyline fill="none" stroke="#F80F30" stroke-width="2" stroke-miterlimit="10" points="523,479 586,513 712,578 803,595 		"/>
		<polygon fill="#F80F30" points="695,662 695,671 733,671 732.561,662 		"/>
		<polygon fill="#0071BC" points="740,662 740,671 779,671 775.261,662 		"/>
		<polyline fill="none" stroke="#FFFFFF" stroke-width="2" stroke-miterlimit="10" points="230.185,754.714 256.6,837.205 
			170,859.205 		"/>
		<line fill="none" stroke="#FFFFFF" stroke-width="2" stroke-miterlimit="10" x1="175.434" y1="806.959" x2="256.6" y2="837.205"/>
		<g>
			<line fill="none" stroke="#263650" stroke-width="2" stroke-miterlimit="10" x1="225" y1="631" x2="356" y2="631"/>
			<line fill="none" stroke="#263650" stroke-width="2" stroke-miterlimit="10" x1="184" y1="647" x2="356" y2="647"/>
			<line fill="none" stroke="#263650" stroke-width="2" stroke-miterlimit="10" x1="184" y1="662" x2="356" y2="662"/>
			<line fill="none" stroke="#263650" stroke-width="2" stroke-miterlimit="10" x1="184" y1="675" x2="356" y2="675"/>
			<line fill="none" stroke="#263650" stroke-width="2" stroke-miterlimit="10" x1="184" y1="689" x2="356" y2="689"/>
			<line fill="none" stroke="#263650" stroke-width="2" stroke-miterlimit="10" x1="184" y1="701" x2="316" y2="701"/>
		</g>
		<g>
			<line fill="none" stroke="#263650" stroke-width="2" stroke-miterlimit="10" x1="563" y1="969" x2="629" y2="969"/>
			<line fill="none" stroke="#263650" stroke-width="2" stroke-miterlimit="10" x1="543" y1="985" x2="629" y2="985"/>
			<line fill="none" stroke="#263650" stroke-width="2" stroke-miterlimit="10" x1="543" y1="1000" x2="629" y2="1000"/>
			<line fill="none" stroke="#263650" stroke-width="2" stroke-miterlimit="10" x1="543" y1="1013" x2="629" y2="1013"/>
			<line fill="none" stroke="#263650" stroke-width="2" stroke-miterlimit="10" x1="543" y1="1027" x2="629" y2="1027"/>
			<line fill="none" stroke="#263650" stroke-width="2" stroke-miterlimit="10" x1="543" y1="1039" x2="609" y2="1039"/>
		</g>
		<g>
			<line fill="none" stroke="#263650" stroke-width="2" stroke-miterlimit="10" x1="680" y1="968" x2="746" y2="968"/>
			<line fill="none" stroke="#263650" stroke-width="2" stroke-miterlimit="10" x1="660" y1="984" x2="746" y2="984"/>
			<line fill="none" stroke="#263650" stroke-width="2" stroke-miterlimit="10" x1="660" y1="999" x2="746" y2="999"/>
			<line fill="none" stroke="#263650" stroke-width="2" stroke-miterlimit="10" x1="660" y1="1012" x2="746" y2="1012"/>
			<line fill="none" stroke="#263650" stroke-width="2" stroke-miterlimit="10" x1="660" y1="1026" x2="746" y2="1026"/>
			<line fill="none" stroke="#263650" stroke-width="2" stroke-miterlimit="10" x1="660" y1="1038" x2="726" y2="1038"/>
		</g>
		<g>
			<path fill="none" stroke="#263650" stroke-width="2" stroke-miterlimit="10" d="M343.674,871.568
				c2.42,6.337,0.651,19.307,0.651,26.701"/>
			<path fill="none" stroke="#263650" stroke-width="2" stroke-miterlimit="10" d="M367.77,872.219
				c-8.055-2.977-8.475,0.642-8.466,7.815c0.006,4.582-1.762,13.959,1.306,17.614c5.034,6.004,8.059-0.86,7.848-5.926
				c-0.228-5.478-0.688-11.699-0.688-17.55"/>
			<path fill="none" stroke="#263650" stroke-width="2" stroke-miterlimit="10" d="M388.609,870.916
				c-11.433-2.799-12.41,13.867-7.67,23.303c3.9,7.763,8.22,2.539,8.177-3.619c-0.038-5.33-1.157-11.301-1.157-17.078"/>
			<path fill="none" stroke="#263650" stroke-width="2" stroke-miterlimit="10" d="M410.101,867.01
				c-1.778,3.609,0.664,6.155,4.459,5.111c0.169-2.912-1.545-4.686-4.459-4.461"/>
			<path fill="none" stroke="#263650" stroke-width="2" stroke-miterlimit="10" d="M428.336,866.357
				c-0.941,4.864-6.949,10.126-9.947,14.689c-2.986,4.545-5.998,9.557-7.637,14.617"/>
			<path fill="none" stroke="#263650" stroke-width="2" stroke-miterlimit="10" d="M428.987,888.5
				c-3.104,2.533-2.079,6.829,2.491,5.748c1.076-2.199,0.59-4.279-1.189-5.748"/>
		</g>
		<polygon fill="#98B1D7" points="545,918 575,918 575,757 545,752.121 		"/>
		<polygon fill="#98B1D7" points="593,920 624,920 624,827 593,827.215 		"/>
		<polygon fill="#98B1D7" points="645.18,922 671,922 671,770.014 644.459,769.775 		"/>
		<line fill="none" stroke="#FFFFFF" stroke-width="2" stroke-miterlimit="10" x1="54" y1="330" x2="146.879" y2="262.793"/>
		<line fill="none" stroke="#FFFFFF" stroke-width="2" stroke-miterlimit="10" x1="1029" y1="313" x2="932.11" y2="247"/>
	</g>
	<g>
		<polyline fill="none" stroke="#263650" stroke-width="2" stroke-miterlimit="10" points="2000,958.121 1156,954 1156,346 
			2000,346 		"/>
		<g>
			<circle fill="none" stroke="#263650" stroke-width="2" stroke-miterlimit="10" cx="1489.486" cy="183" r="73"/>
			<polyline fill="none" stroke="#263650" stroke-width="2" stroke-miterlimit="10" points="1509,138 1489.486,183 1521,183 			"/>
		</g>
		<path fill="none" stroke="#263650" stroke-width="2" stroke-miterlimit="10" d="M2000,388c0,0-749.271-25.54-787.136,11.23
			s-19.798,482.171-3.831,509.471C1225,936,1957,937.127,2000,911.563"/>
		<polygon fill="none" stroke="#263650" stroke-width="2" stroke-miterlimit="10" points="1578,455.088 1592.229,617 1747,617 
			1737,446 		"/>
		<polygon fill="none" stroke="#263650" stroke-width="2" stroke-miterlimit="10" points="1690,552 1690,687 1811,683.784 1811,552 
					"/>
		<polygon fill="none" stroke="#263650" stroke-width="2" stroke-miterlimit="10" points="1735,759 1735,788 1931,788.121 1931,759 
					"/>
		<rect x="1601" y="476" fill="none" stroke="#263650" stroke-width="2" stroke-miterlimit="10" width="44" height="44"/>
		<line fill="none" stroke="#263650" stroke-width="2" stroke-miterlimit="10" x1="1717" y1="638" x2="1771" y2="638"/>
		<line fill="none" stroke="#263650" stroke-width="2" stroke-miterlimit="10" x1="1717" y1="655" x2="1771" y2="655"/>
		<line fill="none" stroke="#263650" stroke-width="2" stroke-miterlimit="10" x1="1601" y1="476" x2="1645" y2="520"/>
		<line fill="none" stroke="#263650" stroke-width="2" stroke-miterlimit="10" x1="1717" y1="669" x2="1771" y2="669"/>
		<rect x="1783" y="446" fill="#CCCCCC" width="106" height="52"/>
		<polyline fill="none" stroke="#263650" stroke-width="2" stroke-miterlimit="10" points="1750.5,958.125 1811,1015 2000,1015 		
			"/>
		<path fill="none" stroke="#263650" stroke-width="2" stroke-miterlimit="10" d="M1861,987.5c0,4.694-3.806,8.5-8.5,8.5h-33
			c-4.694,0-8.5-3.806-8.5-8.5l0,0c0-4.694,3.806-8.5,8.5-8.5h33C1857.194,979,1861,982.806,1861,987.5L1861,987.5z"/>
		<path fill="#F80F30" d="M1925,987.5c0,4.694-3.806,8.5-8.5,8.5h-33c-4.694,0-8.5-3.806-8.5-8.5l0,0c0-4.694,3.806-8.5,8.5-8.5h33
			C1921.194,979,1925,982.806,1925,987.5L1925,987.5z"/>
		<line fill="none" stroke="#263650" stroke-width="2" stroke-miterlimit="10" x1="1900" y1="385.821" x2="2000" y2="453.73"/>
	</g>
	<g>
		<path fill="#E7AAB0" d="M817.23,932.319c0,0-34.305-60.045-45.232-74.896c-10.928-14.853-37.615-33.551-45.884-48.205
			c-8.269-14.653-18.355-40.808-15.669-49.967c2.688-9.159,2.688-9.159,2.688-9.159s-0.961-14.029,2.439-14.819
			c3.401-0.79,2.313-4.145,5.69-4.597c3.376-0.451,7.046-4.857,10.173-1.951s3.438,25.659,9.076,30.758
			c5.637,5.1,14.939,14.84,18.818,16.621s0.264-12.527,0.264-12.527s-2.285-14.209,1.951-17.235
			c4.236-3.027,5.021,10.401,8.541,14.006c3.519,3.604,14.693,15.132,15.43,23.209s0.609,18.764,0.609,18.764
			s73.326,83.672,75.222,85.15S817.23,932.319,817.23,932.319z"/>
		<polygon fill="#FFFFFF" points="788.626,903.451 807.922,931.627 862.306,875.508 837.694,854.958 		"/>
		<polygon fill="#263650" points="805.399,824.288 775.261,862.134 783.982,875.889 816.58,833.257 		"/>
		<path fill="#263650" d="M1176.953,743.906c0,0-10.496-3.652-31.219,20.347s-119.718,185.88-137.717,221.934L1000,1001.24
			L861.024,860.248L802.527,941c0,0,141.938,243.232,187.213,240.232s162.254-148.493,207.26-166.492
			S1176.953,743.906,1176.953,743.906z"/>
		<path fill="#F80F30" d="M770.949,859.205c-7.143,4.962,3.143,28.174,15.579,22.89
			C798.966,876.811,770.949,859.205,770.949,859.205z"/>
		<path fill="#1D355C" d="M1623.629,809.83c-20.703-7.445-70,69.543-84,176.356s0,140.813-16,156.813s-29.172,26.371-29.172,26.371
			l41.172,122.402c0,0,150-28.513,154-87.643C1693.629,1145,1664.865,824.66,1623.629,809.83z"/>
		<path fill="#1D355C" d="M1230.408,1324.279c186.861,66.031,278.511,17.531,314.011-12.879c-7.31-15.771-12.96-26.16-12.96-26.16
			l-293.83,13.76L1230.408,1324.279z"/>
		<path fill="none" stroke="#FFFFFF" stroke-width="2" stroke-miterlimit="10" d="M1230.408,1324.279
			c186.861,66.031,278.511,17.531,314.011-12.879c-7.31-15.771-12.96-26.16-12.96-26.16"/>
		<path fill="#1D355C" d="M1548.42,1285.24c0,26.16,28.08,114.76,28.08,114.76H1197c24-146,0.71-291,0.71-291
			c-12-54-40.04-96-50.04-200s21.98-163.891,21.98-163.891c46.189-8.119,99.47-7.85,152.939-2.93
			c52.771,4.85,105.71,14.23,152.21,24.541c79.78,17.699,140.561,38.129,148.84,43.109c0,0-50.63,222.17-66.63,274.17
			S1548.42,1259.08,1548.42,1285.24z"/>
		<path fill="#98B1D7" d="M1474.8,766.721L1373.3,929.12L1349,968l-6.32-54.08l-20.09-171.74
			C1375.36,747.029,1428.3,756.41,1474.8,766.721z"/>
		<path fill="#F80F30" d="M1379.49,830.62l-6.19,98.5L1349,968l-6.32-54.08c15.03-46.9,27.08-84.55,27.08-84.55L1379.49,830.62z"/>
		<path fill="#E7AAB0" d="M1388.839,602.496c0,0-21.417,68.43-22.667,83.754c-1.25,15.326-4.24,22.192,8.355,28.412
			c12.595,6.219,13.424,10.772,11.645,19.195c-1.779,8.42-5.021,15.324-14.932,15.31s-7.473,5.634-7.473,5.634
			s-1.643,53.821,12.858,55.012c14.501,1.191,53.737-57.779,53.737-57.779s-9.25,0.695-3.974-13.045
			c5.277-13.741,13.141-31.188,13.141-31.188s14.776-0.092,18.173-9.871c3.395-9.778-7.262-6.855-1.656-24.425
			c5.605-17.571,26.289-63.691-9.584-80.787C1410.591,575.62,1391.947,592.411,1388.839,602.496z"/>
		<path fill="#FECF06" d="M1385.426,613.583c0,0-18.511-20.145-8.151-47.485c10.36-27.34,32.908-25.946,46.826-23.182
			c13.917,2.765,31.981,14.459,39.853,27.324c7.872,12.864,9.38,26.895,19.11,35.055c9.729,8.16,13.317,21.466,10.416,35.921
			c0,0-8.966,10.222-12.643,25.567c-3.677,15.345-26.026,42.455-42.692,44.126c0,0,20.541-33.115,21.897-56.169
			c1.356-23.053-9.675-31.874-24.508-35.743c-14.834-3.87-30.919-6.215-30.919-6.215s-10.128-3.47-12.217-16.092L1385.426,613.583z"
			/>
		<path fill="#F80F30" d="M1363.711,808.172c0,0,3.448,19.459,6.045,21.2c2.598,1.74,9.738,1.243,9.738,1.243l17.512-18.195
			C1397.006,812.42,1379.826,801.074,1363.711,808.172z"/>
		<path fill="#FFFFFF" d="M1371.735,745.283l5.421,60.369l-21.239,10.678l2.28-67.811
			C1358.197,748.52,1365.664,740.856,1371.735,745.283z"/>
		<path fill="#FFFFFF" d="M1427.326,745.492l-44.672,60.355l23.46,19.002l31.4-76.396
			C1437.515,748.453,1432.835,743.763,1427.326,745.492z"/>
		<polyline fill="none" stroke="#263650" stroke-width="2" stroke-miterlimit="10" points="1389.141,654.789 1382.391,668.198 
			1387.277,668.821 		"/>
		<path fill="none" stroke="#263650" stroke-width="2" stroke-miterlimit="10" d="M1380.09,686.227c0,0,19.629,8.847,33.33-2.442"/>
		<path fill="none" stroke="#263650" stroke-width="2" stroke-miterlimit="10" d="M1392.398,596.69c0,0-7.609-17.685,7.852-28.397"
			/>
		<path fill="none" stroke="#263650" stroke-width="2" stroke-miterlimit="10" d="M1411.789,577.519c0,0-9.516,10.367-8.151,20.605"
			/>
		<path fill="none" stroke="#263650" stroke-width="2" stroke-miterlimit="10" d="M1422.133,595.047c0,0-7.572-1.608-7.512,8.907"/>
		<path fill="none" stroke="#263650" stroke-width="2" stroke-miterlimit="10" d="M1378.728,716.934c0,0,16.728,9.307,27.744,0.848"
			/>
		<polygon fill="none" stroke="#FFFFFF" stroke-width="2" stroke-miterlimit="10" points="1540.486,1004.252 1539.402,1026.225 
			1448.514,1021.748 1449.398,1003.77 		"/>
		<path fill="#3F5D82" d="M1322.59,738.703c0,0,25.41,172.297,26.41,229.297l-6.32,121c0,0-28.663-94.616-48.68-121s-16-51-6-61
			s13-20,13-20s-34-12.823-30-36.912c4-24.088,32-111.385,32-111.385S1311.18,728.407,1322.59,738.703z"/>
		<path fill="#3F5D82" d="M1474.8,761c0,0-117.8,166-125.8,207l-6.32,121c0,0,69.902-113,91.611-132S1437,918.127,1422,911.563
			c0,0,54-11.819,60-28.691s5.023-101.978,7.012-112.925S1482.062,756.869,1474.8,761z"/>
		<path fill="#F80F30" d="M1475,1003v-47c0,0,6-4.333,9,0v47H1475z"/>
		<g>
			<path fill="none" stroke="#FFFFFF" stroke-width="2" stroke-miterlimit="10" d="M1494,1004v-63c0,0,7-7.666,14,0v63"/>
			<path fill="none" stroke="#FFFFFF" stroke-width="2" stroke-miterlimit="10" d="M1494,985.333c0,0,6.999,4.667,14,0"/>
			<path fill="none" stroke="#FFFFFF" stroke-width="2" stroke-miterlimit="10" d="M1508,941c0,0,5.002-1.001,5.668,3.666
				s0,30.667,0,30.667"/>
		</g>
		<line fill="none" stroke="#FFFFFF" stroke-width="2" stroke-miterlimit="10" x1="1343" y1="1089" x2="1343" y2="1400"/>
		<path fill="none" stroke="#FFFFFF" stroke-width="2" stroke-miterlimit="10" d="M1548.42,1285.24c0,0-5.959-146.911,8.59-201.24
			s43.723-175.299,43.723-175.299"/>
		<path fill="none" stroke="#FFFFFF" stroke-width="2" stroke-miterlimit="10" d="M1171.859,1027.5
			c0,0-50.043-111.248-26.126-196.819"/>
		<circle fill="none" stroke="#FFFFFF" stroke-width="2" stroke-miterlimit="10" cx="857.052" cy="903.938" r="5.253"/>
		<circle fill="none" stroke="#FFFFFF" stroke-width="2" stroke-miterlimit="10" cx="876.052" cy="924.938" r="5.253"/>
		<circle fill="none" stroke="#FFFFFF" stroke-width="2" stroke-miterlimit="10" cx="895.052" cy="940.938" r="5.253"/>
		<circle fill="none" stroke="#FFFFFF" stroke-width="2" stroke-miterlimit="10" cx="1374.052" cy="1195.938" r="5.253"/>
		<circle fill="none" stroke="#FFFFFF" stroke-width="2" stroke-miterlimit="10" cx="1376.052" cy="1312.938" r="5.253"/>
		<path fill="#1D355C" d="M1406.789,636c10.546,2.667,25.572,5.333,25.726,14s-10.61,15.61-22.229,9.805S1406.789,636,1406.789,636z
			"/>
		<path fill="#1D355C" d="M1392.128,631.96c-10.162-3.881-23.989-10.339-29.099-3.336c-5.107,7.003-0.293,18.873,12.551,20.803
			S1392.128,631.96,1392.128,631.96z"/>
		<path fill="none" stroke="#263650" stroke-width="2" stroke-miterlimit="10" d="M1391.154,633.96c0,0,6.854-5.961,15.586,4.04"/>
		<line fill="none" stroke="#263650" stroke-width="2" stroke-miterlimit="10" x1="1389.141" y1="636" x2="1410.084" y2="642"/>
		<path fill="none" stroke="#263650" stroke-width="2" stroke-miterlimit="10" d="M1430.667,648.971
			c0,0,35.803,15.338,36.402,19.851s-2.734,7.179-2.734,7.179"/>
		<path fill="#FFFFFF" d="M1416.5,640.5c0,0-8.499,5.333-6.416,6.667s4.537,2.395,4.537,2.395l-6.788,5.938c0,0,4.239,4.5,7.453,4.5
			l6.847-8c0,0,1.534-1,0.534-2.029c-1.8-1.852-4.167-2.304-4.167-2.304l6.167-4.667C1424.667,643,1419,640.667,1416.5,640.5z"/>
		<path fill="#FFFFFF" d="M1375.843,628.979c0,0-7.854,4.929-5.93,6.161s4.193,2.213,4.193,2.213l-6.273,5.488
			c0,0,3.918,4.159,6.888,4.159l6.328-7.394c0,0,1.418-0.925,0.493-1.875c-1.663-1.712-3.851-2.13-3.851-2.13l5.699-4.312
			C1383.391,631.289,1378.153,629.132,1375.843,628.979z"/>
		<path fill="none" stroke="#263650" stroke-width="2" stroke-miterlimit="10" d="M759.33,776.104c0,0-2.337,5.23,0,17.23"/>
		<path fill="none" stroke="#263650" stroke-width="2" stroke-miterlimit="10" d="M725.455,728.929c0,0,2.879,26.405,6.879,31.738
			s7.333,7.333,7.333,7.333"/>
		<path fill="none" stroke="#263650" stroke-width="2" stroke-miterlimit="10" d="M715.572,735.272c0,0,6.337,24.062,9.883,30.062
			s10.212,10.77,10.212,10.77"/>
		<path fill="none" stroke="#263650" stroke-width="2" stroke-miterlimit="10" d="M712.246,753.112c0,0,5.422,16.428,10.755,22.991
			s9.56,12.018,9.56,12.018"/>
	</g>
	<g>
		<path fill="#98B1D7" d="M1079.971,456c0,46.471-0.488,86.524,65.763,92s84.675,11.118,84.675,11.118l26.58,52.882l13.685-64
			c0,0,84.515-29.691,51.917-115.846S1079.971,370.525,1079.971,456z"/>
		<path fill="none" stroke="#263650" stroke-width="2" stroke-miterlimit="10" d="M1054.971,448c0,46.471-0.488,86.524,65.763,92
			s84.675,11.118,84.675,11.118l51.58,60.882l-11.315-72c0,0,84.515-29.691,51.917-115.846S1054.971,362.525,1054.971,448z"/>
		<g>
			<path fill="none" stroke="#FFFFFF" stroke-width="2" stroke-miterlimit="10" d="M1208.486,444.406
				c3.289-15.432-20.238-19.18-29.959-11.317c-10.604,8.578-7.297,29.074,5.684,33.285c6.763,2.194,13.529-2.302,19.62,2.577
				c4.48,3.589,7.151,12.695,3.497,18.178c-5.871,8.81-42.669,6.581-35.121-6.924"/>
			<path fill="none" stroke="#FFFFFF" stroke-width="2" stroke-miterlimit="10" d="M1196.939,505.608
				c1.205-12.967-2.31-26.831-2.31-40.417c0-17.448,1.155-34.572,1.155-51.964"/>
			<path fill="none" stroke="#FFFFFF" stroke-width="2" stroke-miterlimit="10" d="M1189.627,505.608
				c1.205-12.967-2.311-26.831-2.311-40.417c0-17.448,1.156-34.572,1.156-51.964"/>
		</g>
	</g>
</g>
</svg>
